<svg id="Calque_1" data-name="Calque 1" xmlns="http://www.w3.org/2000/svg" viewBox="0 0 841.89 595.28"><defs><style>.cls-1{fill:#b6dcd1;}.cls-2{fill:#eaa6ca;}.cls-3{fill:#ffed00;}.cls-4{fill:none;stroke:#ee725f;stroke-miterlimit:10;stroke-width:5px;}</style></defs><title>bg</title><polygon class="cls-1" points="899.59 421.75 696.55 787.62 51.86 -87.28 899.59 -202.94 899.59 421.75"/><polygon class="cls-2" points="-584.14 -197 -27.91 -214.37 783.66 903.03 -318.29 1024.3 -584.14 -197"/><path class="cls-3" d="M561,190.14c3.22,0,3.23-5,0-5s-3.22,5,0,5Z"/><path class="cls-3" d="M496.33,131c3.22,0,3.23-5,0-5s-3.22,5,0,5Z"/><path class="cls-3" d="M598.12,209.39c3.22,0,3.22-5,0-5s-3.22,5,0,5Z"/><path class="cls-3" d="M559.61,264.41c3.21,0,3.22-5,0-5s-3.23,5,0,5Z"/><path class="cls-3" d="M462,190.14c3.21,0,3.22-5,0-5s-3.23,5,0,5Z"/><path class="cls-3" d="M408.3,140.62c3.22,0,3.22-5,0-5s-3.22,5,0,5Z"/><path class="cls-3" d="M577.49,107.61c3.22,0,3.22-5,0-5s-3.22,5,0,5Z"/><path class="cls-3" d="M636.64,88.35c3.21,0,3.22-5,0-5s-3.23,5,0,5Z"/><path class="cls-3" d="M647.64,159.87c3.22,0,3.22-5,0-5s-3.22,5,0,5Z"/><path class="cls-3" d="M570.61,148.87c3.22,0,3.22-5,0-5s-3.22,5,0,5Z"/><path class="cls-3" d="M471.57,82.85c3.22,0,3.23-5,0-5s-3.22,5,0,5Z"/><path class="cls-3" d="M376.66,77.34c3.22,0,3.23-5,0-5s-3.22,5,0,5Z"/><path class="cls-3" d="M375.29,99.35c3.22,0,3.22-5,0-5s-3.22,5,0,5Z"/><path class="cls-3" d="M691.66,330.44c3.21,0,3.22-5,0-5s-3.23,5,0,5Z"/><path class="cls-3" d="M661.4,392.34c3.21,0,3.22-5,0-5s-3.23,5,0,5Z"/><path class="cls-3" d="M578.86,375.83c3.22,0,3.23-5,0-5s-3.22,5,0,5Z"/><path class="cls-3" d="M515.59,282.3c3.22,0,3.22-5,0-5s-3.22,5,0,5Z"/><path class="cls-3" d="M468.82,252c3.22,0,3.23-5,0-5s-3.22,5,0,5Z"/><path class="cls-3" d="M642.14,197c3.22,0,3.22-5,0-5s-3.22,5,0,5Z"/><path class="cls-3" d="M639.39,286.42c3.21,0,3.22-5,0-5s-3.23,5,0,5Z"/><path class="cls-3" d="M613.25,307.05c3.22,0,3.22-5,0-5s-3.22,5,0,5Z"/><path class="cls-3" d="M629.76,246.53c3.22,0,3.22-5,0-5s-3.22,5,0,5Z"/><path class="cls-3" d="M668.27,223.15c3.22,0,3.23-5,0-5s-3.22,5,0,5Z"/><path class="cls-3" d="M675.15,121.36c3.22,0,3.22-5,0-5s-3.22,5,0,5Z"/><path class="cls-3" d="M624.26,114.48c3.21,0,3.22-5,0-5s-3.23,5,0,5Z"/><path class="cls-3" d="M640.76,440.48c3.22,0,3.23-5,0-5s-3.22,5,0,5Z"/><path class="cls-3" d="M602.25,433.6c3.22,0,3.22-5,0-5s-3.22,5,0,5Z"/><path class="cls-3" d="M489.46,298.8c3.21,0,3.22-5,0-5s-3.23,5,0,5Z"/><path class="cls-3" d="M682,561.53c3.22,0,3.22-5,0-5s-3.22,5,0,5Z"/><path class="cls-3" d="M697.16,472.12c3.22,0,3.22-5,0-5s-3.22,5,0,5Z"/><path class="cls-3" d="M636.64,474.87c3.21,0,3.22-5,0-5s-3.23,5,0,5Z"/><path class="cls-3" d="M625.63,505.13c3.22,0,3.22-5,0-5s-3.22,5,0,5Z"/><path class="cls-3" d="M545.85,348.32c3.22,0,3.22-5,0-5s-3.22,5,0,5Z"/><path class="cls-3" d="M598.12,342.82c3.22,0,3.22-5,0-5s-3.22,5,0,5Z"/><path class="cls-3" d="M660,356.57c3.22,0,3.22-5,0-5s-3.22,5,0,5Z"/><path class="cls-3" d="M683.4,407.47c3.22,0,3.23-5,0-5s-3.22,5,0,5Z"/><path class="cls-3" d="M532.1,381.33c3.21,0,3.22-5,0-5s-3.23,5,0,5Z"/><path class="cls-3" d="M395.92,181.88c3.22,0,3.22-5,0-5s-3.22,5,0,5Z"/><path class="cls-3" d="M340.9,93.85c3.22,0,3.22-5,0-5s-3.22,5,0,5Z"/><path class="cls-3" d="M439.94,125.49c3.21,0,3.22-5,0-5s-3.23,5,0,5Z"/><line class="cls-4" x1="26.86" y1="127.94" x2="75" y2="169.2"/><line class="cls-4" x1="22.73" y1="353.52" x2="146.53" y2="353.52"/><line class="cls-4" x1="156.16" y1="261.36" x2="172.66" y2="304.01"/><line class="cls-4" x1="-17.16" y1="279.25" x2="61.25" y2="279.25"/><line class="cls-4" x1="114.89" y1="145.82" x2="114.89" y2="206.34"/><line class="cls-4" x1="279.95" y1="404.42" x2="275.83" y2="471.82"/><line class="cls-4" x1="241.44" y1="313.62" x2="314.34" y2="327.39"/><line class="cls-4" x1="127.02" y1="90.8" x2="193.88" y2="140.47"/><line class="cls-4" x1="230.43" y1="254.49" x2="222.18" y2="283.37"/><line class="cls-4" x1="79.13" y1="471.82" x2="193.88" y2="502.08"/><line class="cls-4" x1="348.73" y1="438.12" x2="297.83" y2="551.6"/><line class="cls-4" x1="136.5" y1="422.3" x2="226.31" y2="389.29"/><line class="cls-4" x1="443.64" y1="546.1" x2="416.13" y2="572.23"/><line class="cls-4" x1="469.77" y1="620.37" x2="502.26" y2="584.44"/><line class="cls-4" x1="61.25" y1="47.88" x2="61.25" y2="111.43"/><line class="cls-4" x1="-28.16" y1="455.31" x2="61.25" y2="519.96"/><line class="cls-4" x1="114.89" y1="583.24" x2="84.63" y2="643.76"/><line class="cls-4" x1="40.61" y1="206.34" x2="84.63" y2="248.98"/><line class="cls-4" x1="202.74" y1="176.08" x2="164.41" y2="220.1"/><line class="cls-4" x1="241.44" y1="559.16" x2="235.94" y2="634.13"/><line class="cls-4" x1="-11.66" y1="585.99" x2="32.36" y2="608.68"/><path class="cls-3" d="M342.4,194.28c3.22,0,3.22-5,0-5s-3.22,5,0,5Z"/><path class="cls-3" d="M254.76,131.24c3.22,0,3.23-5,0-5s-3.22,5,0,5Z"/><path class="cls-3" d="M380.84,272.7c3.22,0,3.22-5,0-5s-3.22,5,0,5Z"/><path class="cls-3" d="M430,357.26c3.22,0,3.22-5,0-5s-3.22,5,0,5Z"/><path class="cls-3" d="M360.85,308.06c3.22,0,3.22-5,0-5s-3.22,5,0,5Z"/><path class="cls-3" d="M506.92,480.26c3.21,0,3.22-5,0-5s-3.23,5,0,5Z"/><path class="cls-3" d="M533.05,529.46c3.22,0,3.23-5,0-5s-3.22,5,0,5Z"/><path class="cls-3" d="M423.89,325c3.22,0,3.22-5,0-5s-3.22,5,0,5Z"/><path class="cls-3" d="M425.43,258.86c3.21,0,3.22-5,0-5s-3.23,5,0,5Z"/><path class="cls-3" d="M485.39,114.33c3.22,0,3.22-5,0-5s-3.22,5,0,5Z"/><path class="cls-3" d="M522.29,77.43c3.22,0,3.22-5,0-5s-3.22,5,0,5Z"/><path class="cls-3" d="M531.52,208.12c3.21,0,3.22-5,0-5s-3.23,5,0,5Z"/><path class="cls-3" d="M669.89,265c3.22,0,3.22-5,0-5s-3.22,5,0,5Z"/><path class="cls-3" d="M668.35,137.39c3.22,0,3.23-5,0-5s-3.22,5,0,5Z"/><path class="cls-3" d="M244,86.66c3.22,0,3.22-5,0-5s-3.22,5,0,5Z"/><path class="cls-3" d="M204,74.36c3.22,0,3.23-5,0-5s-3.22,5,0,5Z"/><path class="cls-3" d="M279.36,171.22c3.22,0,3.23-5,0-5s-3.22,5,0,5Z"/><path class="cls-3" d="M343.94,206.58c3.22,0,3.22-5,0-5s-3.22,5,0,5Z"/><path class="cls-3" d="M324,140.47c3.22,0,3.22-5,0-5s-3.22,5,0,5Z"/><path class="cls-3" d="M474.63,414.15c3.21,0,3.22-5,0-5s-3.22,5,0,5Z"/><path class="cls-3" d="M574.57,532.54c3.21,0,3.22-5,0-5s-3.23,5,0,5Z"/><path class="cls-3" d="M634.53,560.21c3.22,0,3.22-5,0-5s-3.22,5,0,5Z"/><path class="cls-3" d="M583.79,564.82c3.22,0,3.22-5,0-5s-3.22,5,0,5Z"/><path class="cls-3" d="M560.73,437.21c3.22,0,3.22-5,0-5s-3.22,5,0,5Z"/><path class="cls-3" d="M570,484.87c3.22,0,3.23-5,0-5s-3.22,5,0,5Z"/><path class="cls-3" d="M520.75,162c3.22,0,3.23-5,0-5s-3.22,5,0,5Z"/></svg>